@startuml
'https://plantuml.com/class-diagram

abstract class AbstractList
abstract AbstractCollection
interface List
interface Collection

List <|-- AbstractList
Collection <|-- AbstractCollection

Collection <|- List
AbstractCollection <|- AbstractList
Hero <|-- Swordsman
Hero <|-- Magician

class Hero {
static void damagedCalculate()
toString()
}

class Swordsman {
static void attack()
}

class Magician {
static void attack()
}

class Class1_Demo {
static void main()
}


@enduml